<svg xmlns="http://www.w3.org/2000/svg" viewBox="0 0 800 800" width="800" height="800">
<rect x="0" y="0" width="800" height="800" rx="0" fill="#ffffff" stroke="#222" stroke-width="1.8" stroke-linejoin="round" stroke-linecap="round" data-region-id="r2041" /><rect x="0" y="0" width="800" height="150" rx="0" fill="#ffffff" stroke="#222" stroke-width="1.8" stroke-linejoin="round" stroke-linecap="round" data-region-id="r2042" /><path d="M0 150 Q100 130 200 150 Q300 170 400 150 Q500 130 600 150 Q700 170 800 150" fill="none" stroke="#222" stroke-width="1.8" stroke-linejoin="round" stroke-linecap="round" /><path d="M0 680 Q200 660 400 680 Q600 700 800 680 L800 800 L0 800 Z" fill="#ffffff" stroke="#222" stroke-width="1.8" stroke-linejoin="round" stroke-linecap="round" data-region-id="r2043" /><path d="M100 680 Q80 600 100 560 Q120 600 100 680 Z" fill="#ffffff" stroke="#222" stroke-width="1.8" stroke-linejoin="round" stroke-linecap="round" data-region-id="r2044" /><path d="M75 660 Q60 590 75 550 Q90 590 75 660 Z" fill="#ffffff" stroke="#222" stroke-width="1.8" stroke-linejoin="round" stroke-linecap="round" data-region-id="r2045" /><path d="M300 680 Q280 600 300 560 Q320 600 300 680 Z" fill="#ffffff" stroke="#222" stroke-width="1.8" stroke-linejoin="round" stroke-linecap="round" data-region-id="r2046" /><path d="M275 660 Q260 590 275 550 Q290 590 275 660 Z" fill="#ffffff" stroke="#222" stroke-width="1.8" stroke-linejoin="round" stroke-linecap="round" data-region-id="r2047" /><path d="M500 680 Q480 600 500 560 Q520 600 500 680 Z" fill="#ffffff" stroke="#222" stroke-width="1.8" stroke-linejoin="round" stroke-linecap="round" data-region-id="r2048" /><path d="M475 660 Q460 590 475 550 Q490 590 475 660 Z" fill="#ffffff" stroke="#222" stroke-width="1.8" stroke-linejoin="round" stroke-linecap="round" data-region-id="r2049" /><path d="M700 680 Q680 600 700 560 Q720 600 700 680 Z" fill="#ffffff" stroke="#222" stroke-width="1.8" stroke-linejoin="round" stroke-linecap="round" data-region-id="r2050" /><path d="M675 660 Q660 590 675 550 Q690 590 675 660 Z" fill="#ffffff" stroke="#222" stroke-width="1.8" stroke-linejoin="round" stroke-linecap="round" data-region-id="r2051" /><ellipse cx="300" cy="380" rx="80" ry="45" fill="#ffffff" stroke="#222" stroke-width="1.8" stroke-linejoin="round" stroke-linecap="round" data-region-id="r2052" /><polygon points="380,380 420,350 420,410" fill="#ffffff" stroke="#222" stroke-width="1.8" stroke-linejoin="round" stroke-linecap="round" data-region-id="r2053" /><circle cx="265" cy="370" r="10" fill="#ffffff" stroke="#222" stroke-width="1.8" stroke-linejoin="round" stroke-linecap="round" data-region-id="r2054" /><ellipse cx="300" cy="380" rx="20" ry="45" fill="#ffffff" stroke="#222" stroke-width="1.8" stroke-linejoin="round" stroke-linecap="round" data-region-id="r2055" /><ellipse cx="550" cy="280" rx="60" ry="35" fill="#ffffff" stroke="#222" stroke-width="1.8" stroke-linejoin="round" stroke-linecap="round" data-region-id="r2056" /><polygon points="610,280 640,258 640,302" fill="#ffffff" stroke="#222" stroke-width="1.8" stroke-linejoin="round" stroke-linecap="round" data-region-id="r2057" /><circle cx="522" cy="272" r="8" fill="#ffffff" stroke="#222" stroke-width="1.8" stroke-linejoin="round" stroke-linecap="round" data-region-id="r2058" /><circle cx="200" cy="200" r="10" fill="#ffffff" stroke="#222" stroke-width="1.8" stroke-linejoin="round" stroke-linecap="round" data-region-id="r2059" /><circle cx="280" cy="260" r="14" fill="#ffffff" stroke="#222" stroke-width="1.8" stroke-linejoin="round" stroke-linecap="round" data-region-id="r2060" /><circle cx="360" cy="320" r="18" fill="#ffffff" stroke="#222" stroke-width="1.8" stroke-linejoin="round" stroke-linecap="round" data-region-id="r2061" /><circle cx="440" cy="200" r="22" fill="#ffffff" stroke="#222" stroke-width="1.8" stroke-linejoin="round" stroke-linecap="round" data-region-id="r2062" /><circle cx="520" cy="260" r="26" fill="#ffffff" stroke="#222" stroke-width="1.8" stroke-linejoin="round" stroke-linecap="round" data-region-id="r2063" /><circle cx="600" cy="320" r="30" fill="#ffffff" stroke="#222" stroke-width="1.8" stroke-linejoin="round" stroke-linecap="round" data-region-id="r2064" /><path d="M480 680 Q500 630 480 590 Q460 550 480 510" fill="none" stroke="#222" stroke-width="1.8" stroke-linejoin="round" stroke-linecap="round" /><path d="M500 680 Q520 640 500 600" fill="none" stroke="#222" stroke-width="1.8" stroke-linejoin="round" stroke-linecap="round" />
</svg>