<svg xmlns="http://www.w3.org/2000/svg" viewBox="0 0 800 800" width="800" height="800">
<rect width="800" height="800" fill="#FDF6E3"/>
<rect x="0" y="0" width="800" height="800" rx="0" fill="#ffffff" stroke="#222" stroke-width="1.8" stroke-linejoin="round" stroke-linecap="round" data-region-id="r2817" /><rect x="0" y="550" width="800" height="250" rx="0" fill="#ffffff" stroke="#222" stroke-width="1.8" stroke-linejoin="round" stroke-linecap="round" data-region-id="r2818" /><rect x="0" y="0" width="800" height="550" rx="0" fill="#ffffff" stroke="#222" stroke-width="1.8" stroke-linejoin="round" stroke-linecap="round" data-region-id="r2819" /><ellipse cx="420" cy="460" rx="220" ry="170" fill="#ffffff" stroke="#222" stroke-width="1.8" stroke-linejoin="round" stroke-linecap="round" data-region-id="r2820" /><circle cx="220" cy="320" r="150" fill="#ffffff" stroke="#222" stroke-width="1.8" stroke-linejoin="round" stroke-linecap="round" data-region-id="r2821" /><path d="M120 400 Q60 450 70 530 Q80 590 130 590 Q170 590 175 540 Q180 480 140 440" fill="#ffffff" stroke="#222" stroke-width="1.8" stroke-linejoin="round" stroke-linecap="round" data-region-id="r2822" /><ellipse cx="140" cy="596" rx="30" ry="18" fill="#ffffff" stroke="#222" stroke-width="1.8" stroke-linejoin="round" stroke-linecap="round" data-region-id="r2823" /><ellipse cx="310" cy="290" rx="35" ry="70" fill="#ffffff" stroke="#222" stroke-width="1.8" stroke-linejoin="round" stroke-linecap="round" data-region-id="r2824" /><ellipse cx="100" cy="310" rx="80" ry="100" fill="#ffffff" stroke="#222" stroke-width="1.8" stroke-linejoin="round" stroke-linecap="round" data-region-id="r2825" /><ellipse cx="100" cy="310" rx="50" ry="65" fill="#ffffff" stroke="#222" stroke-width="1.8" stroke-linejoin="round" stroke-linecap="round" data-region-id="r2826" /><circle cx="175" cy="280" r="22" fill="#ffffff" stroke="#222" stroke-width="1.8" stroke-linejoin="round" stroke-linecap="round" data-region-id="r2827" /><circle cx="175" cy="280" r="10" fill="#ffffff" stroke="#222" stroke-width="1.8" stroke-linejoin="round" stroke-linecap="round" data-region-id="r2828" /><path d="M145 380 Q105 430 120 470" fill="none" stroke="#222" stroke-width="10" stroke-linecap="round" /><rect x="270" y="570" width="70" height="130" rx="20" fill="#ffffff" stroke="#222" stroke-width="1.8" stroke-linejoin="round" stroke-linecap="round" data-region-id="r2829" /><rect x="430" y="570" width="70" height="130" rx="20" fill="#ffffff" stroke="#222" stroke-width="1.8" stroke-linejoin="round" stroke-linecap="round" data-region-id="r2830" /><rect x="250" y="570" width="70" height="130" rx="20" fill="#ffffff" stroke="#222" stroke-width="1.8" stroke-linejoin="round" stroke-linecap="round" data-region-id="r2831" /><rect x="410" y="570" width="70" height="130" rx="20" fill="#ffffff" stroke="#222" stroke-width="1.8" stroke-linejoin="round" stroke-linecap="round" data-region-id="r2832" /><path d="M620 430 Q670 400 680 450 Q690 490 660 510" fill="none" stroke="#222" stroke-width="1.8" stroke-linejoin="round" stroke-linecap="round" /><circle cx="660" cy="515" r="12" fill="#ffffff" stroke="#222" stroke-width="1.8" stroke-linejoin="round" stroke-linecap="round" data-region-id="r2833" />
</svg>