<svg xmlns="http://www.w3.org/2000/svg" viewBox="0 0 800 800" width="800" height="800">
<rect width="800" height="800" fill="#FDF6E3"/>
<path d="M 400.0 40.0 A 360 360 0 0 1 580.0 88.2 L 540.0 157.5 A 280 280 0 0 0 400.0 120.0 Z" fill="#ffffff" stroke="#222" stroke-width="1.8" stroke-linejoin="round" stroke-linecap="round" data-region-id="r1527" /><text x="482.82209443280664" y="94.90373558749815" text-anchor="middle" font-size="10" font-weight="600" fill="#666" pointer-events="none" user-select="none">1</text><path d="M 580.0 88.2 A 360 360 0 0 1 711.8 220.0 L 642.5 260.0 A 280 280 0 0 0 540.0 157.5 Z" fill="#ffffff" stroke="#222" stroke-width="1.8" stroke-linejoin="round" stroke-linecap="round" data-region-id="r1528" /><text x="626.2741699796952" y="177.7258300203048" text-anchor="middle" font-size="10" font-weight="600" fill="#666" pointer-events="none" user-select="none">2</text><path d="M 711.8 220.0 A 360 360 0 0 1 760.0 400.0 L 680.0 400.0 A 280 280 0 0 0 642.5 260.0 Z" fill="#ffffff" stroke="#222" stroke-width="1.8" stroke-linejoin="round" stroke-linecap="round" data-region-id="r1529" /><text x="709.0962644125018" y="321.17790556719336" text-anchor="middle" font-size="10" font-weight="600" fill="#666" pointer-events="none" user-select="none">3</text><path d="M 760.0 400.0 A 360 360 0 0 1 711.8 580.0 L 642.5 540.0 A 280 280 0 0 0 680.0 400.0 Z" fill="#ffffff" stroke="#222" stroke-width="1.8" stroke-linejoin="round" stroke-linecap="round" data-region-id="r1530" /><text x="709.0962644125018" y="486.82209443280664" text-anchor="middle" font-size="10" font-weight="600" fill="#666" pointer-events="none" user-select="none">4</text><path d="M 711.8 580.0 A 360 360 0 0 1 580.0 711.8 L 540.0 642.5 A 280 280 0 0 0 642.5 540.0 Z" fill="#ffffff" stroke="#222" stroke-width="1.8" stroke-linejoin="round" stroke-linecap="round" data-region-id="r1531" /><text x="626.2741699796952" y="630.2741699796952" text-anchor="middle" font-size="10" font-weight="600" fill="#666" pointer-events="none" user-select="none">5</text><path d="M 580.0 711.8 A 360 360 0 0 1 400.0 760.0 L 400.0 680.0 A 280 280 0 0 0 540.0 642.5 Z" fill="#ffffff" stroke="#222" stroke-width="1.8" stroke-linejoin="round" stroke-linecap="round" data-region-id="r1532" /><text x="482.82209443280664" y="713.0962644125018" text-anchor="middle" font-size="10" font-weight="600" fill="#666" pointer-events="none" user-select="none">6</text><path d="M 400.0 760.0 A 360 360 0 0 1 220.0 711.8 L 260.0 642.5 A 280 280 0 0 0 400.0 680.0 Z" fill="#ffffff" stroke="#222" stroke-width="1.8" stroke-linejoin="round" stroke-linecap="round" data-region-id="r1533" /><text x="317.1779055671933" y="713.0962644125018" text-anchor="middle" font-size="10" font-weight="600" fill="#666" pointer-events="none" user-select="none">7</text><path d="M 220.0 711.8 A 360 360 0 0 1 88.2 580.0 L 157.5 540.0 A 280 280 0 0 0 260.0 642.5 Z" fill="#ffffff" stroke="#222" stroke-width="1.8" stroke-linejoin="round" stroke-linecap="round" data-region-id="r1534" /><text x="173.7258300203048" y="630.2741699796952" text-anchor="middle" font-size="10" font-weight="600" fill="#666" pointer-events="none" user-select="none">8</text><path d="M 88.2 580.0 A 360 360 0 0 1 40.0 400.0 L 120.0 400.0 A 280 280 0 0 0 157.5 540.0 Z" fill="#ffffff" stroke="#222" stroke-width="1.8" stroke-linejoin="round" stroke-linecap="round" data-region-id="r1535" /><text x="90.9037355874982" y="486.8220944328067" text-anchor="middle" font-size="10" font-weight="600" fill="#666" pointer-events="none" user-select="none">1</text><path d="M 40.0 400.0 A 360 360 0 0 1 88.2 220.0 L 157.5 260.0 A 280 280 0 0 0 120.0 400.0 Z" fill="#ffffff" stroke="#222" stroke-width="1.8" stroke-linejoin="round" stroke-linecap="round" data-region-id="r1536" /><text x="90.90373558749809" y="321.1779055671935" text-anchor="middle" font-size="10" font-weight="600" fill="#666" pointer-events="none" user-select="none">2</text><path d="M 88.2 220.0 A 360 360 0 0 1 220.0 88.2 L 260.0 157.5 A 280 280 0 0 0 157.5 260.0 Z" fill="#ffffff" stroke="#222" stroke-width="1.8" stroke-linejoin="round" stroke-linecap="round" data-region-id="r1537" /><text x="173.72583002030473" y="177.7258300203048" text-anchor="middle" font-size="10" font-weight="600" fill="#666" pointer-events="none" user-select="none">3</text><path d="M 220.0 88.2 A 360 360 0 0 1 400.0 40.0 L 400.0 120.0 A 280 280 0 0 0 260.0 157.5 Z" fill="#ffffff" stroke="#222" stroke-width="1.8" stroke-linejoin="round" stroke-linecap="round" data-region-id="r1538" /><text x="317.1779055671934" y="94.90373558749815" text-anchor="middle" font-size="10" font-weight="600" fill="#666" pointer-events="none" user-select="none">4</text><path d="M 400.0 120.0 A 280 280 0 0 1 540.0 157.5 L 500.0 226.8 A 200 200 0 0 0 400.0 200.0 Z" fill="#ffffff" stroke="#222" stroke-width="1.8" stroke-linejoin="round" stroke-linecap="round" data-region-id="r1539" /><text x="462.116570824605" y="172.1778016906236" text-anchor="middle" font-size="10" font-weight="600" fill="#666" pointer-events="none" user-select="none">1</text><path d="M 540.0 157.5 A 280 280 0 0 1 642.5 260.0 L 573.2 300.0 A 200 200 0 0 0 500.0 226.8 Z" fill="#ffffff" stroke="#222" stroke-width="1.8" stroke-linejoin="round" stroke-linecap="round" data-region-id="r1540" /><text x="569.7056274847714" y="234.29437251522862" text-anchor="middle" font-size="10" font-weight="600" fill="#666" pointer-events="none" user-select="none">2</text><path d="M 642.5 260.0 A 280 280 0 0 1 680.0 400.0 L 600.0 400.0 A 200 200 0 0 0 573.2 300.0 Z" fill="#ffffff" stroke="#222" stroke-width="1.8" stroke-linejoin="round" stroke-linecap="round" data-region-id="r1541" /><text x="631.8221983093764" y="341.883429175395" text-anchor="middle" font-size="10" font-weight="600" fill="#666" pointer-events="none" user-select="none">3</text><path d="M 680.0 400.0 A 280 280 0 0 1 642.5 540.0 L 573.2 500.0 A 200 200 0 0 0 600.0 400.0 Z" fill="#ffffff" stroke="#222" stroke-width="1.8" stroke-linejoin="round" stroke-linecap="round" data-region-id="r1542" /><text x="631.8221983093764" y="466.116570824605" text-anchor="middle" font-size="10" font-weight="600" fill="#666" pointer-events="none" user-select="none">4</text><path d="M 642.5 540.0 A 280 280 0 0 1 540.0 642.5 L 500.0 573.2 A 200 200 0 0 0 573.2 500.0 Z" fill="#ffffff" stroke="#222" stroke-width="1.8" stroke-linejoin="round" stroke-linecap="round" data-region-id="r1543" /><text x="569.7056274847714" y="573.7056274847714" text-anchor="middle" font-size="10" font-weight="600" fill="#666" pointer-events="none" user-select="none">5</text><path d="M 540.0 642.5 A 280 280 0 0 1 400.0 680.0 L 400.0 600.0 A 200 200 0 0 0 500.0 573.2 Z" fill="#ffffff" stroke="#222" stroke-width="1.8" stroke-linejoin="round" stroke-linecap="round" data-region-id="r1544" /><text x="462.116570824605" y="635.8221983093764" text-anchor="middle" font-size="10" font-weight="600" fill="#666" pointer-events="none" user-select="none">6</text><path d="M 400.0 680.0 A 280 280 0 0 1 260.0 642.5 L 300.0 573.2 A 200 200 0 0 0 400.0 600.0 Z" fill="#ffffff" stroke="#222" stroke-width="1.8" stroke-linejoin="round" stroke-linecap="round" data-region-id="r1545" /><text x="337.883429175395" y="635.8221983093764" text-anchor="middle" font-size="10" font-weight="600" fill="#666" pointer-events="none" user-select="none">7</text><path d="M 260.0 642.5 A 280 280 0 0 1 157.5 540.0 L 226.8 500.0 A 200 200 0 0 0 300.0 573.2 Z" fill="#ffffff" stroke="#222" stroke-width="1.8" stroke-linejoin="round" stroke-linecap="round" data-region-id="r1546" /><text x="230.29437251522862" y="573.7056274847714" text-anchor="middle" font-size="10" font-weight="600" fill="#666" pointer-events="none" user-select="none">8</text><path d="M 157.5 540.0 A 280 280 0 0 1 120.0 400.0 L 200.0 400.0 A 200 200 0 0 0 226.8 500.0 Z" fill="#ffffff" stroke="#222" stroke-width="1.8" stroke-linejoin="round" stroke-linecap="round" data-region-id="r1547" /><text x="168.17780169062362" y="466.11657082460505" text-anchor="middle" font-size="10" font-weight="600" fill="#666" pointer-events="none" user-select="none">1</text><path d="M 120.0 400.0 A 280 280 0 0 1 157.5 260.0 L 226.8 300.0 A 200 200 0 0 0 200.0 400.0 Z" fill="#ffffff" stroke="#222" stroke-width="1.8" stroke-linejoin="round" stroke-linecap="round" data-region-id="r1548" /><text x="168.17780169062357" y="341.8834291753951" text-anchor="middle" font-size="10" font-weight="600" fill="#666" pointer-events="none" user-select="none">2</text><path d="M 157.5 260.0 A 280 280 0 0 1 260.0 157.5 L 300.0 226.8 A 200 200 0 0 0 226.8 300.0 Z" fill="#ffffff" stroke="#222" stroke-width="1.8" stroke-linejoin="round" stroke-linecap="round" data-region-id="r1549" /><text x="230.29437251522856" y="234.29437251522862" text-anchor="middle" font-size="10" font-weight="600" fill="#666" pointer-events="none" user-select="none">3</text><path d="M 260.0 157.5 A 280 280 0 0 1 400.0 120.0 L 400.0 200.0 A 200 200 0 0 0 300.0 226.8 Z" fill="#ffffff" stroke="#222" stroke-width="1.8" stroke-linejoin="round" stroke-linecap="round" data-region-id="r1550" /><text x="337.88342917539507" y="172.1778016906236" text-anchor="middle" font-size="10" font-weight="600" fill="#666" pointer-events="none" user-select="none">4</text><path d="M 400.0 200.0 A 200 200 0 0 1 500.0 226.8 L 465.0 287.4 A 130 130 0 0 0 400.0 270.0 Z" fill="#ffffff" stroke="#222" stroke-width="1.8" stroke-linejoin="round" stroke-linecap="round" data-region-id="r1551" /><text x="442.70514244191594" y="244.62223866230372" text-anchor="middle" font-size="10" font-weight="600" fill="#666" pointer-events="none" user-select="none">1</text><path d="M 500.0 226.8 A 200 200 0 0 1 573.2 300.0 L 512.6 335.0 A 130 130 0 0 0 465.0 287.4 Z" fill="#ffffff" stroke="#222" stroke-width="1.8" stroke-linejoin="round" stroke-linecap="round" data-region-id="r1552" /><text x="516.6726188957804" y="287.3273811042197" text-anchor="middle" font-size="10" font-weight="600" fill="#666" pointer-events="none" user-select="none">2</text><path d="M 573.2 300.0 A 200 200 0 0 1 600.0 400.0 L 530.0 400.0 A 130 130 0 0 0 512.6 335.0 Z" fill="#ffffff" stroke="#222" stroke-width="1.8" stroke-linejoin="round" stroke-linecap="round" data-region-id="r1553" /><text x="559.3777613376963" y="361.29485755808406" text-anchor="middle" font-size="10" font-weight="600" fill="#666" pointer-events="none" user-select="none">3</text><path d="M 600.0 400.0 A 200 200 0 0 1 573.2 500.0 L 512.6 465.0 A 130 130 0 0 0 530.0 400.0 Z" fill="#ffffff" stroke="#222" stroke-width="1.8" stroke-linejoin="round" stroke-linecap="round" data-region-id="r1554" /><text x="559.3777613376963" y="446.70514244191594" text-anchor="middle" font-size="10" font-weight="600" fill="#666" pointer-events="none" user-select="none">4</text><path d="M 573.2 500.0 A 200 200 0 0 1 500.0 573.2 L 465.0 512.6 A 130 130 0 0 0 512.6 465.0 Z" fill="#ffffff" stroke="#222" stroke-width="1.8" stroke-linejoin="round" stroke-linecap="round" data-region-id="r1555" /><text x="516.6726188957804" y="520.6726188957804" text-anchor="middle" font-size="10" font-weight="600" fill="#666" pointer-events="none" user-select="none">5</text><path d="M 500.0 573.2 A 200 200 0 0 1 400.0 600.0 L 400.0 530.0 A 130 130 0 0 0 465.0 512.6 Z" fill="#ffffff" stroke="#222" stroke-width="1.8" stroke-linejoin="round" stroke-linecap="round" data-region-id="r1556" /><text x="442.70514244191594" y="563.3777613376963" text-anchor="middle" font-size="10" font-weight="600" fill="#666" pointer-events="none" user-select="none">6</text><path d="M 400.0 600.0 A 200 200 0 0 1 300.0 573.2 L 335.0 512.6 A 130 130 0 0 0 400.0 530.0 Z" fill="#ffffff" stroke="#222" stroke-width="1.8" stroke-linejoin="round" stroke-linecap="round" data-region-id="r1557" /><text x="357.29485755808406" y="563.3777613376963" text-anchor="middle" font-size="10" font-weight="600" fill="#666" pointer-events="none" user-select="none">7</text><path d="M 300.0 573.2 A 200 200 0 0 1 226.8 500.0 L 287.4 465.0 A 130 130 0 0 0 335.0 512.6 Z" fill="#ffffff" stroke="#222" stroke-width="1.8" stroke-linejoin="round" stroke-linecap="round" data-region-id="r1558" /><text x="283.3273811042197" y="520.6726188957804" text-anchor="middle" font-size="10" font-weight="600" fill="#666" pointer-events="none" user-select="none">8</text><path d="M 226.8 500.0 A 200 200 0 0 1 200.0 400.0 L 270.0 400.0 A 130 130 0 0 0 287.4 465.0 Z" fill="#ffffff" stroke="#222" stroke-width="1.8" stroke-linejoin="round" stroke-linecap="round" data-region-id="r1559" /><text x="240.62223866230374" y="446.705142441916" text-anchor="middle" font-size="10" font-weight="600" fill="#666" pointer-events="none" user-select="none">1</text><path d="M 200.0 400.0 A 200 200 0 0 1 226.8 300.0 L 287.4 335.0 A 130 130 0 0 0 270.0 400.0 Z" fill="#ffffff" stroke="#222" stroke-width="1.8" stroke-linejoin="round" stroke-linecap="round" data-region-id="r1560" /><text x="240.62223866230372" y="361.2948575580841" text-anchor="middle" font-size="10" font-weight="600" fill="#666" pointer-events="none" user-select="none">2</text><path d="M 226.8 300.0 A 200 200 0 0 1 300.0 226.8 L 335.0 287.4 A 130 130 0 0 0 287.4 335.0 Z" fill="#ffffff" stroke="#222" stroke-width="1.8" stroke-linejoin="round" stroke-linecap="round" data-region-id="r1561" /><text x="283.3273811042196" y="287.3273811042197" text-anchor="middle" font-size="10" font-weight="600" fill="#666" pointer-events="none" user-select="none">3</text><path d="M 300.0 226.8 A 200 200 0 0 1 400.0 200.0 L 400.0 270.0 A 130 130 0 0 0 335.0 287.4 Z" fill="#ffffff" stroke="#222" stroke-width="1.8" stroke-linejoin="round" stroke-linecap="round" data-region-id="r1562" /><text x="357.2948575580841" y="244.62223866230372" text-anchor="middle" font-size="10" font-weight="600" fill="#666" pointer-events="none" user-select="none">4</text><path d="M 400.0 270.0 A 130 130 0 0 1 465.0 287.4 L 435.0 339.4 A 70 70 0 0 0 400.0 330.0 Z" fill="#ffffff" stroke="#222" stroke-width="1.8" stroke-linejoin="round" stroke-linecap="round" data-region-id="r1563" /><text x="425.88190451025207" y="307.4074173710932" text-anchor="middle" font-size="10" font-weight="600" fill="#666" pointer-events="none" user-select="none">1</text><path d="M 465.0 287.4 A 130 130 0 0 1 512.6 335.0 L 460.6 365.0 A 70 70 0 0 0 435.0 339.4 Z" fill="#ffffff" stroke="#222" stroke-width="1.8" stroke-linejoin="round" stroke-linecap="round" data-region-id="r1564" /><text x="470.71067811865476" y="333.28932188134524" text-anchor="middle" font-size="10" font-weight="600" fill="#666" pointer-events="none" user-select="none">2</text><path d="M 512.6 335.0 A 130 130 0 0 1 530.0 400.0 L 470.0 400.0 A 70 70 0 0 0 460.6 365.0 Z" fill="#ffffff" stroke="#222" stroke-width="1.8" stroke-linejoin="round" stroke-linecap="round" data-region-id="r1565" /><text x="496.5925826289068" y="378.11809548974793" text-anchor="middle" font-size="10" font-weight="600" fill="#666" pointer-events="none" user-select="none">3</text><path d="M 530.0 400.0 A 130 130 0 0 1 512.6 465.0 L 460.6 435.0 A 70 70 0 0 0 470.0 400.0 Z" fill="#ffffff" stroke="#222" stroke-width="1.8" stroke-linejoin="round" stroke-linecap="round" data-region-id="r1566" /><text x="496.5925826289068" y="429.88190451025207" text-anchor="middle" font-size="10" font-weight="600" fill="#666" pointer-events="none" user-select="none">4</text><path d="M 512.6 465.0 A 130 130 0 0 1 465.0 512.6 L 435.0 460.6 A 70 70 0 0 0 460.6 435.0 Z" fill="#ffffff" stroke="#222" stroke-width="1.8" stroke-linejoin="round" stroke-linecap="round" data-region-id="r1567" /><text x="470.71067811865476" y="474.71067811865476" text-anchor="middle" font-size="10" font-weight="600" fill="#666" pointer-events="none" user-select="none">5</text><path d="M 465.0 512.6 A 130 130 0 0 1 400.0 530.0 L 400.0 470.0 A 70 70 0 0 0 435.0 460.6 Z" fill="#ffffff" stroke="#222" stroke-width="1.8" stroke-linejoin="round" stroke-linecap="round" data-region-id="r1568" /><text x="425.88190451025207" y="500.5925826289068" text-anchor="middle" font-size="10" font-weight="600" fill="#666" pointer-events="none" user-select="none">6</text><path d="M 400.0 530.0 A 130 130 0 0 1 335.0 512.6 L 365.0 460.6 A 70 70 0 0 0 400.0 470.0 Z" fill="#ffffff" stroke="#222" stroke-width="1.8" stroke-linejoin="round" stroke-linecap="round" data-region-id="r1569" /><text x="374.11809548974793" y="500.5925826289068" text-anchor="middle" font-size="10" font-weight="600" fill="#666" pointer-events="none" user-select="none">7</text><path d="M 335.0 512.6 A 130 130 0 0 1 287.4 465.0 L 339.4 435.0 A 70 70 0 0 0 365.0 460.6 Z" fill="#ffffff" stroke="#222" stroke-width="1.8" stroke-linejoin="round" stroke-linecap="round" data-region-id="r1570" /><text x="329.28932188134524" y="474.71067811865476" text-anchor="middle" font-size="10" font-weight="600" fill="#666" pointer-events="none" user-select="none">8</text><path d="M 287.4 465.0 A 130 130 0 0 1 270.0 400.0 L 330.0 400.0 A 70 70 0 0 0 339.4 435.0 Z" fill="#ffffff" stroke="#222" stroke-width="1.8" stroke-linejoin="round" stroke-linecap="round" data-region-id="r1571" /><text x="303.4074173710932" y="429.8819045102521" text-anchor="middle" font-size="10" font-weight="600" fill="#666" pointer-events="none" user-select="none">1</text><path d="M 270.0 400.0 A 130 130 0 0 1 287.4 335.0 L 339.4 365.0 A 70 70 0 0 0 330.0 400.0 Z" fill="#ffffff" stroke="#222" stroke-width="1.8" stroke-linejoin="round" stroke-linecap="round" data-region-id="r1572" /><text x="303.4074173710932" y="378.118095489748" text-anchor="middle" font-size="10" font-weight="600" fill="#666" pointer-events="none" user-select="none">2</text><path d="M 287.4 335.0 A 130 130 0 0 1 335.0 287.4 L 365.0 339.4 A 70 70 0 0 0 339.4 365.0 Z" fill="#ffffff" stroke="#222" stroke-width="1.8" stroke-linejoin="round" stroke-linecap="round" data-region-id="r1573" /><text x="329.28932188134524" y="333.28932188134524" text-anchor="middle" font-size="10" font-weight="600" fill="#666" pointer-events="none" user-select="none">3</text><path d="M 335.0 287.4 A 130 130 0 0 1 400.0 270.0 L 400.0 330.0 A 70 70 0 0 0 365.0 339.4 Z" fill="#ffffff" stroke="#222" stroke-width="1.8" stroke-linejoin="round" stroke-linecap="round" data-region-id="r1574" /><text x="374.11809548974793" y="307.4074173710932" text-anchor="middle" font-size="10" font-weight="600" fill="#666" pointer-events="none" user-select="none">4</text><path d="M 400.0 330.0 A 70 70 0 0 1 435.0 339.4 L 415.0 374.0 A 30 30 0 0 0 400.0 370.0 Z" fill="#ffffff" stroke="#222" stroke-width="1.8" stroke-linejoin="round" stroke-linecap="round" data-region-id="r1575" /><text x="412.94095225512604" y="355.7037086855466" text-anchor="middle" font-size="10" font-weight="600" fill="#666" pointer-events="none" user-select="none">1</text><path d="M 435.0 339.4 A 70 70 0 0 1 460.6 365.0 L 426.0 385.0 A 30 30 0 0 0 415.0 374.0 Z" fill="#ffffff" stroke="#222" stroke-width="1.8" stroke-linejoin="round" stroke-linecap="round" data-region-id="r1576" /><text x="435.3553390593274" y="368.6446609406726" text-anchor="middle" font-size="10" font-weight="600" fill="#666" pointer-events="none" user-select="none">2</text><path d="M 460.6 365.0 A 70 70 0 0 1 470.0 400.0 L 430.0 400.0 A 30 30 0 0 0 426.0 385.0 Z" fill="#ffffff" stroke="#222" stroke-width="1.8" stroke-linejoin="round" stroke-linecap="round" data-region-id="r1577" /><text x="448.2962913144534" y="391.05904774487396" text-anchor="middle" font-size="10" font-weight="600" fill="#666" pointer-events="none" user-select="none">3</text><path d="M 470.0 400.0 A 70 70 0 0 1 460.6 435.0 L 426.0 415.0 A 30 30 0 0 0 430.0 400.0 Z" fill="#ffffff" stroke="#222" stroke-width="1.8" stroke-linejoin="round" stroke-linecap="round" data-region-id="r1578" /><text x="448.2962913144534" y="416.94095225512604" text-anchor="middle" font-size="10" font-weight="600" fill="#666" pointer-events="none" user-select="none">4</text><path d="M 460.6 435.0 A 70 70 0 0 1 435.0 460.6 L 415.0 426.0 A 30 30 0 0 0 426.0 415.0 Z" fill="#ffffff" stroke="#222" stroke-width="1.8" stroke-linejoin="round" stroke-linecap="round" data-region-id="r1579" /><text x="435.3553390593274" y="439.3553390593274" text-anchor="middle" font-size="10" font-weight="600" fill="#666" pointer-events="none" user-select="none">5</text><path d="M 435.0 460.6 A 70 70 0 0 1 400.0 470.0 L 400.0 430.0 A 30 30 0 0 0 415.0 426.0 Z" fill="#ffffff" stroke="#222" stroke-width="1.8" stroke-linejoin="round" stroke-linecap="round" data-region-id="r1580" /><text x="412.94095225512604" y="452.2962913144534" text-anchor="middle" font-size="10" font-weight="600" fill="#666" pointer-events="none" user-select="none">6</text><path d="M 400.0 470.0 A 70 70 0 0 1 365.0 460.6 L 385.0 426.0 A 30 30 0 0 0 400.0 430.0 Z" fill="#ffffff" stroke="#222" stroke-width="1.8" stroke-linejoin="round" stroke-linecap="round" data-region-id="r1581" /><text x="387.05904774487396" y="452.2962913144534" text-anchor="middle" font-size="10" font-weight="600" fill="#666" pointer-events="none" user-select="none">7</text><path d="M 365.0 460.6 A 70 70 0 0 1 339.4 435.0 L 374.0 415.0 A 30 30 0 0 0 385.0 426.0 Z" fill="#ffffff" stroke="#222" stroke-width="1.8" stroke-linejoin="round" stroke-linecap="round" data-region-id="r1582" /><text x="364.6446609406726" y="439.3553390593274" text-anchor="middle" font-size="10" font-weight="600" fill="#666" pointer-events="none" user-select="none">8</text><path d="M 339.4 435.0 A 70 70 0 0 1 330.0 400.0 L 370.0 400.0 A 30 30 0 0 0 374.0 415.0 Z" fill="#ffffff" stroke="#222" stroke-width="1.8" stroke-linejoin="round" stroke-linecap="round" data-region-id="r1583" /><text x="351.7037086855466" y="416.94095225512604" text-anchor="middle" font-size="10" font-weight="600" fill="#666" pointer-events="none" user-select="none">1</text><path d="M 330.0 400.0 A 70 70 0 0 1 339.4 365.0 L 374.0 385.0 A 30 30 0 0 0 370.0 400.0 Z" fill="#ffffff" stroke="#222" stroke-width="1.8" stroke-linejoin="round" stroke-linecap="round" data-region-id="r1584" /><text x="351.7037086855466" y="391.05904774487396" text-anchor="middle" font-size="10" font-weight="600" fill="#666" pointer-events="none" user-select="none">2</text><path d="M 339.4 365.0 A 70 70 0 0 1 365.0 339.4 L 385.0 374.0 A 30 30 0 0 0 374.0 385.0 Z" fill="#ffffff" stroke="#222" stroke-width="1.8" stroke-linejoin="round" stroke-linecap="round" data-region-id="r1585" /><text x="364.6446609406726" y="368.6446609406726" text-anchor="middle" font-size="10" font-weight="600" fill="#666" pointer-events="none" user-select="none">3</text><path d="M 365.0 339.4 A 70 70 0 0 1 400.0 330.0 L 400.0 370.0 A 30 30 0 0 0 385.0 374.0 Z" fill="#ffffff" stroke="#222" stroke-width="1.8" stroke-linejoin="round" stroke-linecap="round" data-region-id="r1586" /><text x="387.05904774487396" y="355.7037086855466" text-anchor="middle" font-size="10" font-weight="600" fill="#666" pointer-events="none" user-select="none">4</text><circle cx="400" cy="400" r="30" fill="#ffffff" stroke="#222" stroke-width="1.8" stroke-linejoin="round" stroke-linecap="round" data-region-id="r1587" />
</svg>